<svg width="445" height="406" viewBox="0 0 445 406" fill="none" xmlns="http://www.w3.org/2000/svg">
<g clip-path="url(#clip0)">
<path d="M415.42 241.033C424.319 218.639 427.951 194.504 426.035 170.489C424.118 146.473 416.705 123.217 404.366 102.511L152.381 137.335L393.863 87.1043C379.171 68.0134 360.275 52.5531 338.637 41.9202C316.999 31.2874 293.199 25.7672 269.081 25.787C182.122 25.787 111.629 96.1471 111.629 182.941C111.631 190.114 112.12 197.279 113.094 204.386L415.42 241.033Z" fill="#F2F2F2"/>
<path d="M122.153 239.522C144.912 298.356 202.109 340.095 269.081 340.095C331.925 340.095 386.161 303.343 411.414 250.202L122.153 239.522Z" fill="#F2F2F2"/>
<path d="M407.522 294.18C407.522 355.939 316.293 406 203.761 406C143.306 406 89.0004 391.554 51.6874 368.604C27.3411 353.634 10.2251 335.04 3.35898 314.493C1.14301 307.949 0.00852482 301.088 0 294.18C0 232.428 168.856 -46.1283 203.761 182.367C238.666 410.862 407.522 232.428 407.522 294.18Z" fill="#FFC107"/>
<path opacity="0.1" d="M305.024 334.732C305.024 357.535 232.874 376.024 143.868 376.024C109.586 376.024 77.8058 373.281 51.6874 368.604C27.341 353.634 10.225 335.04 3.35889 314.493C30.9901 301.927 83.5606 293.441 143.868 293.441C232.874 293.441 305.024 311.93 305.024 334.732Z" fill="black"/>
<path d="M188.697 99.5368C175.925 77.9971 150.657 76.9933 150.657 76.9933C150.657 76.9933 126.035 73.8506 110.24 106.656C95.5173 137.233 75.1987 166.756 106.968 173.914L112.707 156.086L116.261 175.241C120.784 175.565 125.322 175.643 129.854 175.473C163.877 174.376 196.278 175.793 195.235 163.608C193.848 147.408 200.986 120.262 188.697 99.5368Z" fill="#2F2E41"/>
<path d="M105.155 288.17C104.681 290.521 104.331 292.911 103.526 295.17C102.726 297.413 101.492 299.487 100.762 301.754C98.4324 308.977 101.661 317.032 106.819 322.607C111.291 327.423 117.064 330.845 123.442 332.459C128.094 333.627 132.932 333.795 137.727 333.958C151.004 334.407 164.622 334.809 177.203 330.55C181.178 329.172 185.017 327.431 188.672 325.35C189.826 324.801 190.843 324.002 191.648 323.011C192.608 321.648 192.73 319.879 192.722 318.213C192.694 312.595 191.553 307.006 191.824 301.395C191.974 298.287 192.557 295.181 192.27 292.082C191.619 285.055 186.028 278.766 179.115 277.284C175.546 276.519 171.845 276.936 168.211 277.284C158.78 278.189 149.308 278.612 139.833 278.551C130.152 278.489 120.531 277.014 110.899 276.86C108.05 276.815 108.108 277.691 107.201 280.443C106.365 282.976 105.682 285.556 105.155 288.17Z" fill="#2F2E41"/>
<path d="M132.628 149.452C132.163 151.883 131.66 154.404 130.196 156.402C128.512 158.7 125.766 160.014 123.954 162.214C121.227 165.525 121.07 170.185 121.059 174.472C121.049 178.421 121.129 182.633 123.335 185.91C124.767 188.038 126.946 189.529 129.075 190.962C137.349 196.527 146.291 202.192 156.266 202.376C160.4 202.452 164.832 201.387 167.551 198.279C168.726 196.819 169.649 195.175 170.284 193.414C172.835 187.138 174.381 180.5 174.866 173.745C175.093 170.567 175.071 167.296 173.994 164.297C172.782 160.924 170.331 158.149 168.712 154.952C166.797 151.149 166.097 146.853 166.706 142.641C166.786 142.344 166.761 142.029 166.635 141.749C166.502 141.599 166.336 141.481 166.15 141.406C165.963 141.331 165.762 141.3 165.562 141.315L145.781 139.894C143.939 139.802 142.105 139.593 140.289 139.266C139.223 139.05 136.407 137.538 135.39 137.94C133.508 138.684 133.014 147.436 132.628 149.452Z" fill="#A0616A"/>
<path opacity="0.1" d="M132.628 150.068C132.163 152.5 131.66 155.02 130.196 157.018C128.512 159.317 125.766 160.63 123.954 162.83C121.227 166.142 121.07 170.801 121.059 175.088C121.049 179.037 121.129 183.249 123.335 186.527C124.767 188.654 126.946 190.146 129.075 191.578C137.349 197.143 146.291 202.809 156.266 202.992C160.4 203.068 164.832 202.003 167.551 198.895C168.726 197.436 169.649 195.791 170.284 194.03C172.835 187.754 174.381 181.117 174.866 174.361C175.093 171.183 175.071 167.912 173.994 164.913C172.782 161.54 170.331 158.765 168.712 155.568C166.797 151.766 166.097 147.469 166.706 143.257C166.786 142.961 166.761 142.645 166.635 142.365C166.502 142.215 166.336 142.098 166.15 142.022C165.963 141.947 165.762 141.916 165.562 141.931L145.781 140.51C143.939 140.418 142.105 140.209 140.289 139.883C139.223 139.666 136.407 138.155 135.39 138.557C133.508 139.301 133.014 148.052 132.628 150.068Z" fill="black"/>
<path d="M151.545 152.099C167.572 152.099 180.565 139.131 180.565 123.134C180.565 107.137 167.572 94.1682 151.545 94.1682C135.517 94.1682 122.524 107.137 122.524 123.134C122.524 139.131 135.517 152.099 151.545 152.099Z" fill="#A0616A"/>
<path d="M136.698 188.01C138.211 189.588 139.813 191.15 141.795 192.075C143.767 192.995 145.988 193.224 148.163 193.285C153.395 193.432 159.066 192.475 162.705 188.722C167.396 183.883 167.241 176.078 170.918 170.433C171.214 169.921 171.619 169.48 172.103 169.14C172.72 168.805 173.417 168.645 174.118 168.677C178.762 168.634 182.807 171.64 186.458 174.505C188.094 175.788 189.77 177.118 190.802 178.921C191.523 180.327 192.018 181.838 192.266 183.398C194.078 192.225 194.665 201.251 195.247 210.243C195.569 215.209 195.89 220.18 195.867 225.157C195.788 241.554 191.969 257.676 188.172 273.629C187.683 275.685 187.014 277.982 185.141 278.967C184.306 279.342 183.409 279.56 182.495 279.611C171.62 280.886 160.722 282.163 149.773 282.331C145.5 282.397 141.229 282.293 136.96 282.021C136.225 282.011 135.496 281.885 134.802 281.646C133.858 281.194 133.048 280.507 132.448 279.651C126.526 272.202 126.176 261.904 126.214 252.395C126.307 229.145 127.139 205.914 128.711 182.701C128.841 180.786 128.869 178.459 127.486 176.951C129.976 180.931 133.441 184.611 136.698 188.01Z" fill="#D0CDE1"/>
<path d="M130.551 154.565C129.571 156.335 122.345 160.733 120.95 162.201C113.155 170.401 98.9287 170.093 91.7999 178.877C89.2918 181.967 87.9887 185.85 87.0303 189.71C85.6749 195.17 84.9511 201.124 87.2218 206.272C89.4067 211.226 94.0061 214.65 97.1288 219.075C100.558 223.933 102.099 229.832 103.577 235.589C104.667 239.84 105.767 244.196 105.342 248.563C104.859 253.528 102.452 258.075 101.031 262.858C99.6091 267.641 99.3638 273.337 102.65 277.096C105.065 279.858 108.852 280.952 112.472 281.568C117.092 282.354 121.788 282.578 126.471 282.785C130.609 282.967 135.17 283.002 138.351 280.355C140.861 278.265 141.952 274.875 142.093 271.616C142.235 268.357 141.555 265.127 141.13 261.892C140.689 258.54 140.519 255.157 140.377 251.779C139.741 236.619 139.654 221.449 140.117 206.27C140.213 203.111 140.33 199.914 139.655 196.826C138.768 192.766 136.569 189.137 134.734 185.406C131.093 178.001 129.371 170.807 129.934 162.576C130.489 154.452 134.039 148.263 130.551 154.565Z" fill="#575A89"/>
<path d="M171.303 155.181C172.796 156.712 177.869 157.217 179.768 158.204C181.513 159.11 183.443 159.583 185.333 160.127C192.26 162.121 198.85 165.14 204.882 169.082C206.135 169.814 207.243 170.769 208.151 171.9C209.213 173.375 209.599 175.216 209.959 176.997C210.889 181.595 211.824 186.248 211.615 190.933C211.393 195.907 209.892 200.724 208.403 205.476L202.838 223.231C198.685 236.484 194.506 249.867 193.337 263.704C192.691 271.372 192.978 279.091 194.193 286.691C194.315 287.455 194.418 288.331 193.912 288.917C193.546 289.279 193.064 289.5 192.55 289.543C189.864 289.962 187.266 288.595 184.832 287.386C177.396 283.692 169.459 281.1 161.273 279.692C164.472 275.078 166.94 270 168.591 264.636C169.528 261.23 170.266 257.773 170.801 254.282L173.39 239.34C174.339 233.86 175.29 228.367 175.61 222.816C175.806 220.735 175.684 218.636 175.25 216.592C174.754 214.619 173.769 212.811 172.886 210.978C168.62 202.122 166.619 192.015 168.297 182.332C169.032 178.095 170.459 173.852 169.864 169.593C169.291 165.498 169.886 162.315 168.834 158.262C164.511 141.622 168.495 152.3 171.303 155.181Z" fill="#575A89"/>
<path d="M91.726 192.879C89.7813 196.907 86.5301 200.339 85.4235 204.671C84.9929 206.696 84.8084 208.766 84.874 210.835C84.8478 213.953 84.8307 217.134 85.79 220.102C86.4077 222.012 87.4124 223.774 88.1363 225.648C89.1453 228.264 89.5948 231.063 89.456 233.864C89.2607 237.744 87.9401 241.51 87.8369 245.393C87.6746 251.5 90.5046 257.241 93.2661 262.693C93.9611 260.975 95.0238 259.43 96.3799 258.164C97.7359 256.899 99.3525 255.945 101.117 255.369C102.881 254.792 104.75 254.607 106.593 254.827C108.436 255.047 110.209 255.666 111.787 256.641C112.516 255.97 112.593 254.867 112.622 253.878C112.826 246.793 113.023 239.707 113.213 232.622C113.511 221.664 113.796 210.559 111.271 199.891C110.13 195.074 108.356 190.276 105.103 186.54C103.391 184.573 97.5766 179.391 94.7651 181.595C93.5008 182.586 93.7963 185.283 93.596 186.65C93.2936 188.809 92.663 190.91 91.726 192.879Z" fill="#575A89"/>
<path d="M212.183 181.272C213.103 184.131 213.158 187.185 213.176 190.188C213.213 196.313 213.132 202.437 212.932 208.56C212.83 211.695 212.689 214.873 211.736 217.861C211.108 219.833 210.139 221.681 209.491 223.645C207.547 229.533 208.609 235.918 208.775 242.115C208.893 244.12 208.722 246.133 208.266 248.09C207.24 251.931 204.484 255.035 202.56 258.516C200.732 261.822 199.63 265.527 197.447 268.611C195.265 271.695 191.487 274.139 187.825 273.192C185.05 272.475 183.079 270.023 181.715 267.507C178.739 261.975 177.721 255.602 178.827 249.42C180.196 241.899 184.622 235.227 186.218 227.751C188.41 217.485 185.078 206.89 185.178 196.394C185.132 194.749 185.356 193.107 185.84 191.533C186.677 189.136 188.475 187.221 190.136 185.298C192.212 182.895 194.141 180.369 195.911 177.733C197.101 175.963 198.716 171.41 200.824 171.031C205.532 170.186 211.015 177.642 212.183 181.272Z" fill="#575A89"/>
<path d="M67.2989 283.604C64.6957 282.951 62.0134 282.666 59.3308 282.758C56.5122 282.914 53.7591 283.667 51.2545 284.966C48.7499 286.266 46.5513 288.083 44.8047 290.297C43.0582 292.51 41.8038 295.069 41.1249 297.804C40.446 300.539 40.3583 303.387 40.8675 306.158C41.4217 309.174 42.6667 312.019 44.0248 314.77C46.138 319.05 48.6725 323.32 52.5845 326.063C54.8729 327.668 57.5215 328.668 60.1385 329.652L80.7423 337.399C83.7734 338.539 86.8049 339.679 89.8659 340.736C105.244 346.041 121.277 349.223 137.52 350.191C142.467 350.485 147.489 350.567 152.316 349.443C153.461 349.176 154.683 348.779 155.346 347.809C155.739 347.126 155.97 346.363 156.023 345.577L157.291 336.718C157.469 335.471 157.641 334.158 157.183 332.984C156.602 331.495 155.146 330.558 153.758 329.762C140.213 321.997 124.397 317.713 112.995 307.056C110.311 304.547 108.065 300.57 104.804 298.866C101.106 296.933 96.7506 295.83 92.9281 294.049C84.5716 290.156 76.3557 285.682 67.2989 283.604Z" fill="#2F2E41"/>
<path opacity="0.1" d="M87.8689 295.547C95.1515 297.825 125.899 313.604 131.169 319.114C130.462 319.368 106.494 305.961 105.775 305.746C99.2378 303.788 92.6641 301.816 86.4559 298.951C85.207 298.374 78.3422 295.664 78.6531 294.091C79.0039 292.317 86.5761 295.143 87.8689 295.547Z" fill="black"/>
<path d="M178.723 354.786C179.137 354.816 179.547 354.696 179.878 354.447C180.023 354.261 180.13 354.048 180.192 353.82C180.254 353.592 180.27 353.355 180.239 353.121C180.227 349.098 180.216 345.075 180.205 341.052C176.728 339.398 172.838 338.868 169.021 338.359L151.208 335.982C151.617 336.037 148.423 343.64 148.912 344.655C149.776 346.444 156.373 348.03 158.235 348.874C164.707 351.811 171.433 355.039 178.723 354.786Z" fill="#A0616A"/>
<path d="M122.836 341.01C119.473 341.545 115.719 342.017 113.541 344.63C110.779 347.944 111.955 352.884 113.272 356.989C113.468 357.82 113.861 358.591 114.418 359.238C115.317 360.123 116.695 360.253 117.956 360.333C121.023 360.527 124.287 360.679 126.967 359.177C128.236 358.466 129.285 357.427 130.468 356.58C132.444 355.267 134.616 354.276 136.904 353.643C141.109 352.323 145.437 351.432 149.823 350.986C151.542 350.811 153.295 350.698 154.912 350.09C156.529 349.482 158.026 348.277 158.496 346.617C159.117 344.424 157.84 342.188 156.615 340.264C155.089 337.868 153.473 335.345 151.197 333.581C147.878 331.008 146.237 332.983 142.893 334.63C136.565 337.747 129.804 339.898 122.836 341.01Z" fill="#A0616A"/>
<path d="M114.047 344.034L92.6916 337.734C90.0944 336.968 87.4528 336.195 84.7445 336.197C82.0362 336.199 79.2027 337.085 77.4463 339.143C75.7903 341.082 75.3164 343.734 74.9036 346.249L74.0205 351.628C73.5717 354.362 73.1221 357.149 73.526 359.89C73.9299 362.631 75.3318 365.369 77.7684 366.696C80.7236 368.305 84.3455 367.519 87.6436 366.846C94.3056 365.487 101.082 364.762 107.881 364.68C110.437 364.65 113.118 364.682 115.377 363.487C118.062 362.067 119.668 359.063 119.944 356.043C120.364 351.448 118.83 345.445 114.047 344.034Z" fill="#2F2E41"/>
<path d="M187.118 338.544C189.886 338.059 192.33 336.489 194.982 335.562C198.716 334.257 202.762 334.257 206.718 334.272C208.171 334.277 209.717 334.31 210.926 335.113C212.669 336.271 213.115 338.588 213.412 340.656C214.007 344.816 214.603 348.976 215.199 353.136C215.535 355.483 215.87 357.893 215.345 360.206C214.821 362.519 213.241 364.748 210.942 365.345C208.15 366.069 205.412 364.289 202.776 363.119C196.185 360.196 188.525 360.943 181.654 358.758C180.378 358.353 179.013 357.733 178.492 356.502C178.257 355.809 178.174 355.074 178.246 354.346C178.364 350.334 177.517 344.857 178.727 341.023C179.815 337.575 184.028 338.544 187.118 338.544Z" fill="#2F2E41"/>
<path d="M232.31 278.581C236.577 277.513 241.001 277.211 245.374 277.69C248.866 278.074 252.464 279.044 255.014 281.457C258.118 284.393 259.115 288.935 259.198 293.202C259.334 301.702 256.51 309.986 251.207 316.638C249.912 318.32 248.372 319.8 246.638 321.028C244.768 322.195 242.775 323.154 240.694 323.887L194.553 342.052C182.414 346.831 170.233 351.623 157.571 354.774C157.225 354.94 156.849 355.036 156.465 355.056C156.081 355.076 155.697 355.018 155.336 354.888C154.974 354.757 154.643 354.555 154.361 354.295C154.079 354.034 153.852 353.72 153.693 353.37C149.65 347.607 146.259 341.414 143.58 334.906C143.453 334.752 143.366 334.569 143.325 334.373C143.284 334.177 143.29 333.975 143.344 333.782C143.398 333.59 143.498 333.413 143.635 333.267C143.772 333.122 143.942 333.011 144.131 332.944L176.767 314.228C179.105 312.888 181.469 311.528 183.41 309.66C184.82 308.296 185.975 306.691 186.82 304.921C187.497 303.511 187.56 300.183 188.424 299.14C189.27 298.12 192.164 298.038 193.501 297.637C195.386 297.06 197.232 296.364 199.028 295.551C206.328 292.292 212.829 287.555 219.827 283.738C223.753 281.498 227.947 279.765 232.31 278.581Z" fill="#2F2E41"/>
<path opacity="0.1" d="M213.808 292.558C208.201 296.761 200.941 300.625 195.384 304.939C193.488 306.411 161.871 324.153 161.424 326.509C166.609 327.381 199.634 304.321 204.359 302.02C209.085 299.719 213.273 296.474 217.424 293.253C218.482 292.432 222.964 289.964 219.928 289.047C218.217 288.531 215.071 291.718 213.808 292.558Z" fill="black"/>
<path d="M175.228 155.588H126.009C124.009 155.588 122.092 156.381 120.678 157.792C119.264 159.203 118.469 161.117 118.469 163.113V165.869H117.935V172.032H118.469V176.346H117.935V180.044H118.469V225.517C118.469 227.513 119.264 229.427 120.678 230.838C122.092 232.25 124.009 233.042 126.009 233.042H175.228C177.228 233.042 179.145 232.25 180.559 230.838C181.973 229.427 182.768 227.513 182.768 225.517V163.113C182.768 161.117 181.973 159.203 180.559 157.792C179.145 156.381 177.228 155.588 175.228 155.588Z" fill="#3F3D56"/>
<path d="M183.051 97.4604L158.087 84.4089L123.613 89.7484L116.481 121.19L134.236 120.509L139.196 108.957V120.318L147.388 120.004L152.143 101.613L155.115 121.19L184.239 120.597L183.051 97.4604Z" fill="#2F2E41"/>
<path d="M98.2571 274.508C99.4905 276.346 100.936 278.144 102.917 279.135C105.392 280.374 108.448 280.153 110.927 278.921C113.385 277.606 115.396 275.593 116.708 273.136C119.421 268.354 119.983 262.632 119.644 257.148C119.306 251.663 118.132 246.262 117.613 240.791C117.235 236.814 117.205 232.813 117.174 228.819C117.168 227.979 117.181 227.075 117.678 226.398C118.279 225.579 119.38 225.353 120.355 225.064C125.83 223.44 129.465 218.317 132.07 213.244C133.81 209.856 135.323 206.153 134.988 202.361C134.652 198.568 131.921 194.748 128.127 194.361C124.999 194.042 122.11 196.026 119.854 198.211C114.161 203.76 110.503 211.057 109.466 218.931C108.971 222.787 109.113 226.748 108.062 230.491C105.819 238.483 98.7991 243.384 95.301 250.575C91.4464 258.5 93.5738 267.497 98.2571 274.508Z" fill="#A0616A"/>
<path d="M201.554 243.974C200.756 245.827 199.594 247.503 198.136 248.9C196.678 250.298 194.955 251.391 193.067 252.113C190.721 253.053 188.133 253.212 185.69 252.564C184.478 252.228 183.36 251.618 182.423 250.782C181.485 249.945 180.754 248.904 180.285 247.739C179.911 246.566 179.707 245.345 179.677 244.115C179.326 238.725 179.461 233.171 181.423 228.137C182.179 226.195 183.199 224.354 183.796 222.358C184.477 220.081 184.586 217.679 184.69 215.305L185.335 200.599C185.442 199.531 185.368 198.453 185.116 197.41C184.473 195.282 182.48 193.899 180.652 192.63C176.237 189.566 171.874 185.99 169.734 181.065C169.08 179.558 168.648 177.883 168.98 176.274C169.583 173.354 172.536 171.464 175.454 170.827C177.364 170.41 179.338 170.383 181.258 170.748C183.178 171.114 185.004 171.863 186.626 172.951C188.249 174.039 189.633 175.444 190.697 177.081C191.761 178.718 192.481 180.552 192.816 182.475C193.105 184.134 193.101 185.829 193.27 187.505C193.628 191.06 194.759 194.487 195.466 197.99C197.209 206.618 196.306 215.537 198.029 224.163C199.47 231.376 204.902 236.082 201.554 243.974Z" fill="#A0616A"/>
<path d="M151.277 188.672C154.687 188.672 157.452 185.913 157.452 182.509C157.452 179.105 154.687 176.346 151.277 176.346C147.867 176.346 145.103 179.105 145.103 182.509C145.103 185.913 147.867 188.672 151.277 188.672Z" fill="#D0CDE1"/>
<path d="M411.921 189.107C405.379 189.107 398.983 191.043 393.543 194.671C388.103 198.299 383.864 203.456 381.36 209.489C378.856 215.522 378.201 222.16 379.477 228.565C380.754 234.969 383.904 240.852 388.53 245.47C393.157 250.087 399.051 253.232 405.468 254.506C411.884 255.78 418.535 255.126 424.58 252.627C430.624 250.128 435.791 245.896 439.425 240.467C443.06 235.037 445 228.654 445 222.124C445 217.788 444.145 213.495 442.482 209.489C440.82 205.483 438.383 201.843 435.311 198.777C432.24 195.712 428.593 193.28 424.58 191.62C420.566 189.961 416.265 189.107 411.921 189.107ZM428.269 213.75C428.287 214.106 428.295 214.472 428.295 214.837C428.295 225.976 419.81 238.819 404.276 238.819C399.693 238.829 395.206 237.506 391.365 235.01C392.033 235.09 392.705 235.131 393.377 235.132C397.178 235.139 400.87 233.868 403.858 231.523C402.097 231.49 400.389 230.908 398.976 229.859C397.562 228.81 396.512 227.346 395.974 225.671C396.496 225.776 397.027 225.829 397.559 225.828C398.31 225.828 399.057 225.728 399.781 225.532C397.871 225.147 396.153 224.114 394.919 222.608C393.685 221.102 393.011 219.217 393.012 217.272V217.167C394.184 217.825 395.5 218.186 396.845 218.219C395.056 217.029 393.788 215.202 393.301 213.112C392.814 211.021 393.143 208.824 394.223 206.967C396.338 209.573 398.98 211.704 401.976 213.222C404.973 214.74 408.256 215.61 411.612 215.776C411.464 215.146 411.391 214.501 411.394 213.854C411.392 212.165 411.9 210.513 412.851 209.116C413.802 207.718 415.152 206.638 416.727 206.017C418.301 205.396 420.026 205.263 421.678 205.634C423.329 206.005 424.831 206.863 425.987 208.098C427.877 207.729 429.689 207.038 431.344 206.054C430.715 208.006 429.396 209.662 427.633 210.715C429.305 210.513 430.937 210.064 432.477 209.385C431.345 211.078 429.92 212.556 428.269 213.75Z" fill="#3F3D56"/>
<path d="M401.284 103.139C404.53 103.139 407.162 100.512 407.162 97.272C407.162 94.0318 404.53 91.4051 401.284 91.4051C398.038 91.4051 395.406 94.0318 395.406 97.272C395.406 100.512 398.038 103.139 401.284 103.139Z" fill="#3F3D56"/>
<path d="M408.632 82.6049H393.937C391.99 82.6105 390.124 83.385 388.748 84.7591C387.371 86.1332 386.595 87.9952 386.589 89.9384V104.606C386.595 106.549 387.371 108.411 388.748 109.785C390.124 111.159 391.99 111.933 393.937 111.939H408.632C410.579 111.933 412.444 111.159 413.821 109.785C415.198 108.411 415.973 106.549 415.979 104.606V89.9384C415.973 87.9952 415.198 86.1332 413.821 84.7591C412.444 83.3851 410.579 82.6106 408.632 82.6049H408.632ZM401.284 106.072C399.54 106.072 397.836 105.556 396.386 104.589C394.936 103.622 393.806 102.248 393.138 100.64C392.471 99.0316 392.297 97.2622 392.637 95.5551C392.977 93.848 393.817 92.28 395.05 91.0492C396.283 89.8185 397.854 88.9804 399.564 88.6408C401.275 88.3012 403.047 88.4755 404.658 89.1416C406.269 89.8077 407.646 90.9356 408.615 92.3828C409.584 93.83 410.101 95.5314 410.101 97.272C410.101 99.6057 409.171 101.844 407.518 103.494C405.865 105.144 403.622 106.072 401.284 106.072ZM410.836 89.9384C410.4 89.9384 409.974 89.8094 409.611 89.5676C409.249 89.3259 408.966 88.9823 408.799 88.5802C408.633 88.1782 408.589 87.7359 408.674 87.3091C408.759 86.8823 408.969 86.4903 409.277 86.1826C409.586 85.875 409.978 85.6654 410.406 85.5805C410.834 85.4957 411.277 85.5392 411.679 85.7058C412.082 85.8723 412.427 86.1543 412.669 86.5161C412.911 86.8779 413.04 87.3032 413.04 87.7384C413.041 88.0275 412.984 88.3139 412.874 88.5811C412.763 88.8484 412.601 89.0912 412.396 89.2956C412.191 89.5 411.948 89.6621 411.68 89.7724C411.413 89.8827 411.126 89.9391 410.836 89.9384V89.9384Z" fill="#3F3D56"/>
<path d="M400.907 62.7737C394.01 62.7737 387.268 64.815 381.533 68.6396C375.798 72.4642 371.329 77.9002 368.689 84.2603C366.05 90.6203 365.359 97.6187 366.705 104.371C368.05 111.122 371.372 117.324 376.249 122.192C381.126 127.06 387.339 130.375 394.104 131.718C400.868 133.061 407.88 132.372 414.252 129.737C420.624 127.103 426.071 122.641 429.903 116.918C433.734 111.194 435.78 104.464 435.78 97.5801C435.78 93.0093 434.878 88.4832 433.125 84.2603C431.373 80.0373 428.804 76.2003 425.566 72.9682C422.328 69.7361 418.483 67.1723 414.252 65.4231C410.021 63.6739 405.487 62.7737 400.907 62.7737ZM418.918 104.605C418.91 107.326 417.824 109.933 415.897 111.857C413.969 113.78 411.358 114.864 408.632 114.872H393.937C391.211 114.865 388.6 113.78 386.672 111.857C384.745 109.933 383.659 107.326 383.651 104.605V89.9384C383.659 87.2179 384.745 84.6111 386.672 82.6874C388.6 80.7637 391.211 79.6794 393.937 79.6714H408.632C411.358 79.6794 413.969 80.7637 415.897 82.6874C417.824 84.6111 418.91 87.2179 418.918 89.9384L418.918 104.605Z" fill="#3F3D56"/>
<path d="M259.452 0C252.666 0 246.032 2.00859 240.389 5.77177C234.747 9.53495 230.349 14.8837 227.752 21.1416C225.155 27.3996 224.475 34.2856 225.799 40.929C227.123 47.5724 230.391 53.6748 235.19 58.4644C239.988 63.254 246.102 66.5158 252.758 67.8373C259.414 69.1587 266.313 68.4805 272.583 65.8884C278.853 63.2962 284.212 58.9066 287.982 53.2746C291.753 47.6426 293.765 41.0212 293.765 34.2477C293.765 29.7502 292.877 25.2968 291.153 21.1416C289.429 16.9865 286.901 13.2111 283.715 10.0309C280.529 6.85072 276.746 4.32805 272.583 2.60695C268.42 0.885842 263.958 0 259.452 0ZM270.271 20.7229H265.879C262.88 20.7229 262.308 22.1387 262.308 24.2252V28.6589H269.45L268.517 35.6138H262.308V54.4913H254.344V35.6138H248.633V28.6589H254.344V23.5173C254.344 17.3573 258.625 14.004 264.137 14.004C266.775 14.004 269.612 14.2027 270.271 14.2897L270.271 20.7229Z" fill="#3F3D56"/>
</g>
<defs>
<clipPath id="clip0">
<rect width="445" height="406" fill="white"/>
</clipPath>
</defs>
</svg>
