<svg width="513" height="406" viewBox="0 0 513 406" fill="none" xmlns="http://www.w3.org/2000/svg">
<g filter="url(#filter0_d)">
<path d="M119.573 397.715C162.227 397.715 196.805 393.547 196.805 388.405C196.805 383.263 162.227 379.095 119.573 379.095C76.9195 379.095 42.3418 383.263 42.3418 388.405C42.3418 393.547 76.9195 397.715 119.573 397.715Z" fill="#F2F2F2"/>
<path d="M282.252 397.715C324.906 397.715 359.483 393.547 359.483 388.405C359.483 383.263 324.906 379.095 282.252 379.095C239.598 379.095 205.021 383.263 205.021 388.405C205.021 393.547 239.598 397.715 282.252 397.715Z" fill="#F2F2F2"/>
<path d="M382.855 223.435L389.609 182.731L305.286 164.869L308.747 61.0415H267.48L264.308 156.189L150.795 132.144L153.166 61.0415H111.899L109.818 123.464L26.8811 105.896L20.1273 146.6L108.423 165.303L105.733 246.001L10.7538 225.882L4 266.586L104.338 287.84L100.989 388.275H142.256L145.315 296.52L258.828 320.565L256.571 388.275H297.837L299.805 329.245L366.728 343.42L373.482 302.717L301.2 287.406L303.891 206.708L382.855 223.435ZM260.223 278.726L146.71 254.681L149.401 173.983L262.913 198.028L260.223 278.726Z" fill="#3F3D56"/>
<path opacity="0.2" d="M271.607 278.726L274.297 198.028L160.785 173.983L160.705 176.378L262.913 198.028L260.302 276.331L271.607 278.726Z" fill="black"/>
<path opacity="0.2" d="M275.692 156.189L278.864 61.0413H267.48L264.388 153.795L275.692 156.189Z" fill="black"/>
<path opacity="0.2" d="M315.275 206.708L315.195 209.103L382.856 223.435L383.242 221.105L315.275 206.708Z" fill="black"/>
<path opacity="0.2" d="M121.202 123.464L123.283 61.0413H111.899L109.898 121.07L121.202 123.464Z" fill="black"/>
<path opacity="0.2" d="M311.19 329.245L311.11 331.639L366.728 343.421L367.114 341.091L311.19 329.245Z" fill="black"/>
<path opacity="0.2" d="M156.7 296.52L156.62 298.914L258.828 320.565L256.571 388.276H267.954L270.212 320.565L156.7 296.52Z" fill="black"/>
<path opacity="0.2" d="M105.812 243.606L117.116 246.001L119.807 165.303L31.5112 146.6L37.8781 108.226L26.8811 105.896L20.127 146.6L108.423 165.303L105.812 243.606Z" fill="black"/>
<path opacity="0.2" d="M15.3842 266.586L21.7512 228.212L10.7536 225.882L4 266.586L104.338 287.84L100.989 388.276H112.373L115.722 287.84L15.3842 266.586Z" fill="black"/>
<path d="M447.894 63.717H406.019V135.219H447.894V63.717Z" fill="#2F2E41"/>
<path d="M456.262 60.7137C451.737 74.1069 444.8 86.3101 430.661 86.3101C416.522 86.3101 405.857 74.8277 405.06 60.7137C404.042 42.6788 416.196 35.0426 430.661 35.1173C447.749 35.2056 461.631 44.8192 456.262 60.7137Z" fill="#2F2E41"/>
<path d="M413.575 161.217L398.789 216.831C398.789 216.831 379.074 221.759 381.187 226.687C383.299 231.615 404.422 223.167 404.422 223.167L423.432 176.705L413.575 161.217Z" fill="#FFB9B9"/>
<path d="M425.544 344.25C425.544 344.25 438.922 357.626 430.473 366.777H448.075L436.81 338.619L425.544 344.25Z" fill="#FFB9B9"/>
<path d="M439.338 366.329C439.338 366.329 439.338 360.548 433.698 364.016C428.059 367.485 409.886 376.735 409.886 376.735C409.886 376.735 397.353 383.673 415.526 384.829C433.698 385.985 451.244 381.938 451.244 379.626C451.244 377.313 449.364 366.24 449.364 366.24C449.364 366.24 445.604 370.376 439.338 366.329Z" fill="#2F2E41"/>
<path d="M441.739 355.514L441.035 378.745L454.412 380.857V358.33L441.739 355.514Z" fill="#FFB9B9"/>
<path d="M429.065 91.5239C439.564 91.5239 448.076 83.0141 448.076 72.5166C448.076 62.0192 439.564 53.5094 429.065 53.5094C418.566 53.5094 410.054 62.0192 410.054 72.5166C410.054 83.0141 418.566 91.5239 429.065 91.5239Z" fill="#FFB9B9"/>
<path d="M422.376 87.6521C422.376 87.6521 431.529 108.771 424.488 115.811C417.448 122.851 435.05 115.811 435.05 115.811C435.05 115.811 444.203 102.435 451.244 101.731C451.244 101.731 440.683 96.0997 441.387 81.3163L422.376 87.6521Z" fill="#FFB9B9"/>
<path d="M410.055 190.08L408.646 223.167C408.646 223.167 383.299 289.34 393.156 304.828C403.014 320.315 426.249 348.474 426.249 348.474C426.249 348.474 439.626 342.138 439.626 338.619C439.626 338.619 426.249 305.532 414.983 297.788C414.983 297.788 415.687 284.413 426.249 270.333L436.106 304.828L440.331 357.626C440.331 357.626 452.3 361.85 456.525 359.738C456.525 359.738 465.678 325.947 459.341 306.236L457.933 252.03C457.933 252.03 476.239 225.279 453.004 193.6L449.484 182.336C449.484 182.336 413.575 185.856 410.055 190.08Z" fill="#2F2E41"/>
<path d="M443.147 375.225C443.147 375.225 443.147 368.185 436.81 372.409C430.473 376.633 410.055 387.897 410.055 387.897C410.055 387.897 395.973 396.344 416.392 397.752C436.81 399.16 456.525 394.232 456.525 391.416C456.525 388.601 454.413 375.117 454.413 375.117C454.413 375.117 450.188 380.153 443.147 375.225Z" fill="#2F2E41"/>
<path d="M428.009 113.699L450.135 101.015C450.135 101.015 482.928 101.732 480.816 118.627C480.816 118.627 474.479 140.45 472.367 138.338L468.142 134.114C468.142 134.114 452.652 165.793 452.652 172.129C452.589 176.205 451.876 180.245 450.54 184.096L412.519 189.728C412.519 189.728 416.744 165.793 410.407 161.569C404.07 157.345 401.958 146.082 408.294 136.226C410.704 132.442 412.797 128.465 414.554 124.337C415.661 121.777 417.264 119.461 419.271 117.524C421.278 115.586 423.649 114.066 426.247 113.05L428.009 113.699Z" fill="#FFC107"/>
<path d="M477.295 116.515C477.295 116.515 514.612 146.786 508.276 153.122C501.939 159.457 467.438 184.8 467.438 184.8C467.438 184.8 463.918 205.92 456.877 205.216C449.836 204.512 458.285 179.169 458.285 179.169L487.857 151.01L471.663 134.114L477.295 116.515Z" fill="#FFB9B9"/>
<path d="M430.661 40.506C436.242 40.506 440.767 35.9824 440.767 30.4022C440.767 24.822 436.242 20.2984 430.661 20.2984C425.08 20.2984 420.555 24.822 420.555 30.4022C420.555 35.9824 425.08 40.506 430.661 40.506Z" fill="#2F2E41"/>
<path d="M418.534 25.0135C418.535 22.5088 419.465 20.0935 421.146 18.236C422.826 16.3785 425.137 15.2113 427.629 14.9607C427.297 14.9277 426.96 14.9097 426.619 14.9097C423.939 14.9097 421.368 15.9742 419.473 17.869C417.578 19.7638 416.513 22.3338 416.513 25.0135C416.513 27.6932 417.578 30.2631 419.473 32.158C421.368 34.0528 423.939 35.1173 426.619 35.1173C426.96 35.1173 427.297 35.0993 427.629 35.0663C425.137 34.8157 422.826 33.6485 421.146 31.791C419.465 29.9335 418.535 27.5182 418.534 25.0135Z" fill="#2F2E41"/>
<path d="M419.003 52.234C419.003 52.234 418.792 51.0596 410.539 54.1538C402.287 57.248 397.34 80.0821 401.466 93.4904C403.129 98.894 401.776 102.79 399.568 105.516C391.283 115.745 394.545 131.109 406.613 136.369C406.954 136.518 407.301 136.665 407.656 136.81L412.814 139.904C412.814 139.904 406.238 131.254 409.529 120.189C412.386 110.761 412.739 100.751 410.553 91.1455C410.175 89.525 409.746 87.8547 409.259 86.1501C405.133 71.7104 407.14 73.3779 421.582 58.9382C421.582 58.9382 429.835 65.1266 437.056 68.2209C444.277 71.3151 450.467 74.4093 445.309 84.7234C440.151 95.0376 427.772 104.32 436.024 117.729C444.277 131.137 445.309 125.98 444.277 131.137L443.245 136.294L449.435 130.106L445.309 138.357C445.309 138.357 458.719 138.357 462.846 128.043L464.909 130.106C464.909 130.106 473.161 115.666 457.688 102.257C457.688 102.257 452.53 99.1632 459.751 88.8491C466.972 78.535 461.426 56.3596 452.142 52.234C442.857 48.1084 419.003 52.234 419.003 52.234Z" fill="#2F2E41"/>
<path d="M215.663 22.2197L205.212 18.097L194.762 13.9743L203.558 6.98743L212.354 0L214.008 11.1101L215.663 22.2197Z" fill="#F2F2F2"/>
<path d="M207.347 100.747L196.898 96.6241L186.447 92.5008L194.745 86.7763L203.043 81.0517L205.195 90.899L207.347 100.747Z" fill="#F2F2F2"/>
<path d="M189.371 206.229L178.921 202.106L168.47 197.984L177.267 190.997L186.063 184.009L187.717 195.119L189.371 206.229Z" fill="#F2F2F2"/>
<path d="M79.7929 325.483L69.9232 330.848L60.0535 336.214L60.3405 324.985L60.628 313.757L70.2102 319.62L79.7929 325.483Z" fill="#F2F2F2"/>
<path d="M69.9338 73.5654L60.0641 78.9307L50.1943 84.2965L50.4814 73.0676L50.7689 61.8392L60.3511 67.7023L69.9338 73.5654Z" fill="#F2F2F2"/>
<path d="M120.037 371.2C126.78 382.697 140.379 387.248 140.379 387.248C140.379 387.248 143.045 373.16 136.303 361.664C129.56 350.168 115.962 345.616 115.962 345.616C115.962 345.616 113.295 359.704 120.037 371.2Z" fill="#F2F2F2"/>
<path d="M124.245 367.188C135.905 373.645 140.79 387.125 140.79 387.125C140.79 387.125 126.77 390.137 115.109 383.679C103.449 377.222 98.5637 363.742 98.5637 363.742C98.5637 363.742 112.584 360.731 124.245 367.188Z" fill="#FFC107"/>
<path d="M334.846 361.678C327.015 372.462 328.295 386.743 328.295 386.743C328.295 386.743 342.273 383.538 350.104 372.754C357.935 361.969 356.655 347.689 356.655 347.689C356.655 347.689 342.677 350.893 334.846 361.678Z" fill="#FFC107"/>
<path d="M340.209 363.923C338.967 377.192 328.573 387.07 328.573 387.07C328.573 387.07 320.193 375.435 321.436 362.166C322.678 348.897 333.072 339.018 333.072 339.018C333.072 339.018 341.452 350.654 340.209 363.923Z" fill="#FFC107"/>
<path d="M472.318 110.748L469.579 131.558L472.318 138.13C472.318 138.13 484.368 123.344 480.534 115.129C476.7 106.914 472.318 110.748 472.318 110.748Z" fill="#FFC107"/>
</g>
<defs>
<filter id="filter0_d" x="0" y="0" width="513" height="406" filterUnits="userSpaceOnUse" color-interpolation-filters="sRGB">
<feFlood flood-opacity="0" result="BackgroundImageFix"/>
<feColorMatrix in="SourceAlpha" type="matrix" values="0 0 0 0 0 0 0 0 0 0 0 0 0 0 0 0 0 0 127 0"/>
<feOffset dy="4"/>
<feGaussianBlur stdDeviation="2"/>
<feColorMatrix type="matrix" values="0 0 0 0 0 0 0 0 0 0 0 0 0 0 0 0 0 0 0.5 0"/>
<feBlend mode="normal" in2="BackgroundImageFix" result="effect1_dropShadow"/>
<feBlend mode="normal" in="SourceGraphic" in2="effect1_dropShadow" result="shape"/>
</filter>
</defs>
</svg>
